<svg width="159" height="24" viewBox="0 0 159 24" fill="none" xmlns="http://www.w3.org/2000/svg">
<g clip-path="url(#clip0_501_9249)">
<path fill-rule="evenodd" clip-rule="evenodd" d="M104.015 6.90619V7.59299C104.015 9.08107 105.213 10.3021 106.674 10.3021C108.135 10.3021 109.334 9.08107 109.334 7.59299V6.90619H104.015V6.90619Z" fill="#31C7AD"/>
<path d="M147.988 21.0239C145.891 21.0239 144.205 20.5278 142.932 19.5739C141.658 18.5819 141.021 17.1701 141.021 15.3005C141.021 13.4309 141.658 11.9809 142.932 11.027C144.205 10.035 145.891 9.57712 147.988 9.57712C150.086 9.57712 151.771 10.0731 153.007 11.027C154.243 12.0191 154.88 13.4309 154.88 15.3005C154.88 17.1701 154.243 18.5819 153.007 19.5739C151.771 20.566 150.086 21.0239 147.988 21.0239ZM147.988 24C150.161 24 152.033 23.6566 153.606 22.9698C155.18 22.283 156.378 21.291 157.165 19.9555C157.989 18.6582 158.401 17.0938 158.401 15.2623C158.401 13.4309 157.989 11.8665 157.165 10.5692C156.341 9.27188 155.142 8.24167 153.606 7.55486C152.071 6.86806 150.198 6.52466 147.988 6.52466C145.816 6.52466 143.943 6.86806 142.37 7.55486C140.797 8.24167 139.598 9.23372 138.811 10.5692C137.987 11.8665 137.575 13.4309 137.575 15.2623C137.575 17.0938 137.987 18.62 138.811 19.9555C139.635 21.2528 140.834 22.2448 142.37 22.9698C143.943 23.6566 145.816 24 147.988 24ZM124.091 24C126.863 24 129.035 23.4658 130.683 22.3593C132.294 21.2528 133.23 19.6884 133.455 17.628H130.084C129.71 18.7345 129.035 19.5739 128.024 20.1463C127.013 20.7568 125.702 21.0239 124.091 21.0239C121.956 21.0239 120.271 20.5278 118.997 19.5358C117.724 18.5437 117.124 17.132 117.124 15.3005C117.124 13.469 117.761 12.0191 118.997 11.027C120.271 10.035 121.956 9.53897 124.091 9.53897C125.739 9.53897 127.05 9.84421 128.062 10.4547C129.073 11.0652 129.747 11.9428 130.084 13.0493H133.455C133.23 11.027 132.294 9.4245 130.683 8.27983C129.073 7.13515 126.863 6.56281 124.091 6.56281C121.994 6.56281 120.158 6.90622 118.623 7.55486C117.05 8.20351 115.814 9.19556 114.952 10.531C114.091 11.8283 113.641 13.4309 113.641 15.3386C113.641 17.2083 114.091 18.8108 114.952 20.1081C115.814 21.4054 117.05 22.3975 118.623 23.0461C120.158 23.6948 121.994 24 124.091 24ZM108.397 23.6948V11.9428H105.026V23.6948H108.397ZM100.007 23.6948V20.8331H89.0701V6.90622H85.699V23.6948H100.007ZM80.7549 23.6948V20.8331H68.0573V16.6741H79.781V13.965H68.0573V9.7679H80.7174V6.90622H64.6489V23.6948H80.7549ZM53.7492 15.4913H46.6326V9.84421H53.7492C54.6481 9.84421 55.3598 10.0731 55.8842 10.5692C56.4086 11.0652 56.6708 11.752 56.6708 12.6677C56.6708 13.5453 56.4086 14.2321 55.8842 14.7282C55.3598 15.2242 54.6481 15.4913 53.7492 15.4913ZM46.6326 23.6948V18.2385H53.4496C55.4347 18.2385 57.0453 17.7806 58.2439 16.903C59.4425 15.9873 60.0792 14.6137 60.0792 12.7059C60.0792 10.76 59.48 9.31003 58.2439 8.35614C57.0079 7.40224 55.4347 6.90622 53.4496 6.90622H43.2241V23.6948H46.6326V23.6948Z" fill="#005161"/>
<path fill-rule="evenodd" clip-rule="evenodd" d="M10.5251 6.86804H33.8227C35.0587 6.86804 35.5831 8.27981 34.7216 9.15739L20.9753 22.0922C16.9675 25.8315 10.5251 22.9698 10.5251 17.4372V6.86804Z" fill="#31C7AD"/>
<path fill-rule="evenodd" clip-rule="evenodd" d="M10.5251 17.0175C16.0312 16.9793 20.5259 12.4769 20.6382 6.86804H10.5251V17.0175Z" fill="#005161"/>
<path fill-rule="evenodd" clip-rule="evenodd" d="M1.08634 6.86805C0.636868 6.86805 0.5245 6.86805 0.224854 6.86805V5.60891C0.262309 2.74722 2.54711 0.381561 5.39376 0.381561C8.2404 0.381561 10.5252 2.70907 10.5252 5.60891V6.86805H1.08634Z" fill="#005161"/>
</g>
<defs>
<clipPath id="clip0_501_9249">
<rect width="159" height="24" fill="white"/>
</clipPath>
</defs>
</svg>
